<svg width="100" height="100" viewBox="0 0 100 100" fill="none" xmlns="http://www.w3.org/2000/svg">
  <circle cx="50" cy="50" r="40" fill="#E84142"/>
  <path d="M40.5488 59.6392H31.3384C30.6012 59.6392 30.2392 59.6392 30.0192 59.4552C29.7992 59.2712 29.7632 58.8732 29.7992 58.1132C29.7992 57.9652 29.8352 57.7812 29.8712 57.5972L38.9388 37.0052C39.1948 36.4292 39.3068 36.1032 39.5268 35.9552C39.7468 35.8072 40.0728 35.8072 40.7028 35.8072H46.9408C47.5708 35.8072 47.8968 35.8072 48.1168 35.9552C48.3368 36.1032 48.4488 36.4292 48.7048 37.0052L52.1468 45.8652L44.4448 59.6392H40.5488Z" fill="white"/>
  <path d="M68.4 59.6392H50.1264L60.1464 39.0292C60.4024 38.4532 60.5144 38.1272 60.7344 37.9792C60.9544 37.8312 61.2804 37.8312 61.9104 37.8312H68.1484C68.7784 37.8312 69.1044 37.8312 69.3244 37.9792C69.5444 38.1272 69.6564 38.4532 69.9124 39.0292L76.9684 54.6132C77.0404 54.7612 77.0764 54.9452 77.1124 55.1292C77.1484 55.8892 77.1124 56.2872 76.8924 56.4712C76.6724 56.6552 76.3104 56.6552 75.5732 56.6552H68.512L68.4 59.6392Z" fill="white"/>
</svg> 