<svg width="800" height="600" viewBox="0 0 800 600" fill="none" xmlns="http://www.w3.org/2000/svg">
  <!-- Background -->
  <rect width="800" height="600" rx="8" fill="#F8FAFC" />
  
  <!-- Header -->
  <rect width="800" height="60" fill="#FFFFFF" />
  <rect x="20" y="20" width="100" height="20" rx="4" fill="#E2E8F0" />
  <rect x="680" y="15" width="80" height="30" rx="4" fill="#3B82F6" />
  
  <!-- Sidebar -->
  <rect width="200" height="540" y="60" fill="#FFFFFF" />
  <rect x="20" y="80" width="160" height="16" rx="2" fill="#E2E8F0" />
  <rect x="20" y="110" width="160" height="16" rx="2" fill="#E2E8F0" />
  <rect x="20" y="140" width="160" height="16" rx="2" fill="#E2E8F0" />
  <rect x="20" y="170" width="160" height="16" rx="2" fill="#E2E8F0" />
  <rect x="20" y="200" width="160" height="16" rx="2" fill="#E2E8F0" />
  
  <!-- Main Content -->
  <rect x="220" y="80" width="560" height="100" rx="8" fill="#FFFFFF" />
  <rect x="240" y="100" width="180" height="20" rx="4" fill="#CBD5E1" />
  <rect x="240" y="130" width="240" height="30" rx="4" fill="#E2E8F0" />
  
  <!-- Charts -->
  <rect x="220" y="200" width="270" height="180" rx="8" fill="#FFFFFF" />
  <rect x="240" y="220" width="100" height="20" rx="4" fill="#CBD5E1" />
  <path d="M240 300 Q 290 260, 340 320 Q 390 280, 440 380" stroke="#3B82F6" stroke-width="3" fill="none" />
  
  <rect x="510" y="200" width="270" height="180" rx="8" fill="#FFFFFF" />
  <rect x="530" y="220" width="100" height="20" rx="4" fill="#CBD5E1" />
  <rect x="530" y="260" width="40" height="100" rx="2" fill="#E2E8F0" />
  <rect x="580" y="280" width="40" height="80" rx="2" fill="#3B82F6" />
  <rect x="630" y="230" width="40" height="130" rx="2" fill="#E2E8F0" />
  <rect x="680" y="260" width="40" height="100" rx="2" fill="#3B82F6" />
  
  <!-- Table -->
  <rect x="220" y="400" width="560" height="180" rx="8" fill="#FFFFFF" />
  <rect x="240" y="420" width="520" height="2" fill="#E2E8F0" />
  <rect x="240" y="460" width="520" height="2" fill="#E2E8F0" />
  <rect x="240" y="500" width="520" height="2" fill="#E2E8F0" />
  <rect x="240" y="540" width="520" height="2" fill="#E2E8F0" />
</svg> 