<?xml version="1.0" encoding="UTF-8"?>
<svg width="100" height="100" viewBox="0 0 100 100" fill="none" xmlns="http://www.w3.org/2000/svg">
  <circle cx="50" cy="50" r="40" fill="#FF0420"/>
  <path d="M34.7129 42.2773V60.8242H40.4512V54.1523H45.4941C51.9199 54.1523 56.1172 50.6055 56.1172 44.7617C56.1172 42.6641 55.3711 40.7891 54.0313 39.3164C52.0469 37.0977 49.0234 36.0391 45.1309 36.0391H34.7129V42.2773ZM45.0215 48.2266H40.4512V42.1133H45.0215C47.5488 42.1133 49.4102 43.3711 49.4102 45.1484C49.4102 46.9805 47.8711 48.2266 45.0215 48.2266Z" fill="white"/>
  <path d="M57.0215 42.2773V60.8242H62.3555V52.6934H71.0645V60.8242H76.3867V42.2773H71.0645V47.0461H62.3555V42.2773H57.0215Z" fill="white"/>
</svg> 